<svg width="35" height="30" viewBox="0 0 35 30" fill="none" xmlns="http://www.w3.org/2000/svg">
<path d="M17.0118 0C7.61843 0 0 6.71625 0 15C0 21.6275 4.87387 27.25 11.6346 29.2337C12.4838 29.3725 12.7588 28.9075 12.7588 28.5125V25.72C8.02672 26.6275 7.04145 23.95 7.04145 23.95C6.26742 22.2162 5.15173 21.755 5.15173 21.755C3.60791 20.8237 5.26939 20.8438 5.26939 20.8438C6.97766 20.9487 7.87645 22.39 7.87645 22.39C9.39333 24.6825 11.8558 24.02 12.8269 23.6362C12.9786 22.6675 13.4194 22.005 13.9071 21.6313C10.1291 21.25 6.15684 19.9637 6.15684 14.2175C6.15684 12.5787 6.82172 11.2413 7.90905 10.1912C7.73326 9.8125 7.15061 8.28625 8.07492 6.22125C8.07492 6.22125 9.50391 5.81875 12.7546 7.75875C14.1113 7.42625 15.5658 7.26 17.0118 7.25375C18.4578 7.26 19.9137 7.42625 21.2732 7.75875C24.521 5.81875 25.9472 6.22125 25.9472 6.22125C26.8729 8.2875 26.2903 9.81375 26.1145 10.1912C27.2061 11.2413 27.8653 12.58 27.8653 14.2175C27.8653 19.9788 23.8859 21.2475 20.098 21.6187C20.7076 22.0837 21.2647 22.9963 21.2647 24.3962V28.5125C21.2647 28.9112 21.5369 29.38 22.4002 29.2325C29.1553 27.2463 34.0235 21.625 34.0235 15C34.0235 6.71625 26.4065 0 17.0118 0Z" fill="#f43b3b"/>
</svg>
