<svg width="35" height="30" viewBox="0 0 35 30" fill="none" xmlns="http://www.w3.org/2000/svg">
<path d="M17.0118 0C7.61702 0 0 6.71625 0 15C0 23.2838 7.61702 30 17.0118 30C26.4065 30 34.0235 23.2838 34.0235 15C34.0235 6.71625 26.4065 0 17.0118 0ZM14.1765 20H11.3412V12.5H14.1765V20ZM12.7588 11.3863C11.8983 11.3863 11.1994 10.7662 11.1994 10C11.1994 9.235 11.8969 8.61375 12.7588 8.61375C13.6208 8.61375 14.3182 9.235 14.3182 10C14.3182 10.7662 13.6193 11.3863 12.7588 11.3863ZM24.1 20H21.2675V16.4237C21.2675 14.0725 18.4294 14.2712 18.4294 16.4237V20H15.5941V12.5H18.4294V13.8663C19.6656 11.8463 24.1 11.6962 24.1 15.8012V20Z" fill="#F43B3B"/>
</svg>
